<svg xmlns="http://www.w3.org/2000/svg" xmlns:xlink="http://www.w3.org/1999/xlink" width="289.063" height="200" class="icon" p-id="5427" t="1537413939719" version="1.1" viewBox="0 0 1480 1024"><defs><style type="text/css"/></defs><path fill="#d81e06" d="M1377.153904 826.292343H103.286543a103.286543 103.286543 0 0 1-103.286543-103.286543v-619.719257a103.286543 103.286543 0 0 1 103.286543-103.286543h1273.867361a103.286543 103.286543 0 0 1 103.286543 103.286543v619.719257a103.286543 103.286543 0 0 1-103.286543 103.286543z m8.607212-685.230469a48.200387 48.200387 0 0 0-48.200386-48.200386H142.879718a48.200387 48.200387 0 0 0-48.200387 48.200386v540.532908a48.200387 48.200387 0 0 0 48.200387 48.200387h55.108535c0-0.287481-0.022379-0.571519-0.022379-0.860722v-170.422795a47.339665 47.339665 0 0 1 94.679331 0v170.422795c0 0.289202-0.017214 0.57324-0.022379 0.860722h103.3313c0-0.287481-0.022379-0.571519-0.022379-0.860722v-111.893754a47.339665 47.339665 0 0 1 94.679331 0v111.893754c0 0.289202-0.017214 0.57324-0.022378 0.860722h103.3313c0-0.287481-0.022379-0.571519-0.022379-0.860722v-113.615197a47.339665 47.339665 0 0 1 94.679331 0v113.615197c0 0.289202-0.017214 0.57324-0.022379 0.860722h103.331301c0-0.287481-0.022379-0.571519-0.022379-0.860722v-113.615197a47.339665 47.339665 0 0 1 94.679331 0v113.615197c0 0.289202-0.017214 0.57324-0.022379 0.860722h103.3313c0-0.287481-0.022379-0.571519-0.022378-0.860722v-117.058082a47.339665 47.339665 0 0 1 94.679331 0v117.058082c0 0.289202-0.017214 0.57324-0.022379 0.860722h103.3313c0-0.287481-0.022379-0.571519-0.022379-0.860722v-170.422795a47.339665 47.339665 0 0 1 94.679331 0v170.422795c0 0.289202-0.017214 0.57324-0.022378 0.860722H1337.56073a48.200387 48.200387 0 0 0 48.200386-48.200387v-540.532908z m-1183.491636 788.248466h1075.901487a47.339665 47.339665 0 0 1 0 94.679331h-1075.901487a47.339665 47.339665 0 0 1 0-94.679331z" p-id="5428"/></svg>